<svg xmlns="http://www.w3.org/2000/svg" width="40" height="40" viewBox="0 0 40 40">
  <defs>
    <linearGradient id="brightBlueGradient" x1="0%" y1="0%" x2="100%" y2="100%">
      <stop offset="0%" style="stop-color:#A3D8FF;stop-opacity:1" />
      <stop offset="25%" style="stop-color:#7DCAFF;stop-opacity:1" />
      <stop offset="50%" style="stop-color:#5BB9FF;stop-opacity:1" />
      <stop offset="75%" style="stop-color:#3AA9FF;stop-opacity:1" />
      <stop offset="100%" style="stop-color:#1A9AFF;stop-opacity:1" />
    </linearGradient>
  </defs>

  <g transform="translate(2,2) scale(0.05143) translate(-140,-140)">
    <path fill="url(#brightBlueGradient)" d="M696,437 C679,515 662,589 645,663 C494,740 348,811 202,882 C334,760 470,639 608,517 C621,507 630,499 639,491 C651,480 662,469 674,458 C679,453 684,449 689,444 C691,442 693,439 696,437z"/>
    <path fill="url(#brightBlueGradient)" d="M335,574 C342,540 348,507 355,474 C362,436 370,399 377,362 C378,357 381,354 386,351 C420,335 454,318 488,302 C538,278 587,255 636,231 C699,201 762,170 825,140 C822,146 814,153 806,160 C754,206 701,253 648,300 C594,347 540,394 486,441 C465,460 444,479 422,498 C415,501 410,506 404,511 C403,512 402,513 401,514 C398,517 395,519 392,522 C391,523 390,525 388,526 C385,529 382,532 378,535 C377,536 376,537 375,538 C372,541 369,544 365,547 C364,548 363,549 362,550 C359,553 356,556 352,559 C350,561 348,564 345,566 C342,569 339,571 337,574 C335,574 335,574 335,574z"/>
    <path fill="url(#brightBlueGradient)" d="M346,567 C348,564 350,561 353,559 C356,556 359,553 363,550 C369,544 372,541 376,538 C382,532 385,529 389,526 C390,525 391,523 393,522 C396,519 399,517 402,514 C407,510 408,510 410,509 C419,512 427,515 436,517 C472,527 508,536 543,546 C545,546 546,546 548,547 C546,549 544,551 542,552 C529,566 515,579 501,593 C499,595 497,596 493,596 C467,593 441,590 415,587 C391,584 367,581 343,579 C341,578 339,578 337,577 C336,576 336,575 336,574 C337,574 337,574 337,574 C340,571 343,569 346,567z"/>
    <path fill="url(#brightBlueGradient)" d="M695,437 C693,439 691,442 689,444 C684,449 679,453 674,458 C662,469 651,480 639,491 C630,499 621,507 612,515 C611,516 609,516 608,517 C613,511 619,506 625,501 C579,489 534,477 488,466 C489,464 490,463 491,462 C505,447 519,433 533,418 C535,417 538,416 540,416 C586,422 632,428 677,434 C683,435 689,436 695,437z"/>
  </g>
</svg>